<?xml version="1.0" encoding="utf-8"?>
<!-- Generator: Adobe Illustrator 24.1.1, SVG Export Plug-In . SVG Version: 6.00 Build 0)  -->
<svg version="1.1" id="Layer_1" xmlns="http://www.w3.org/2000/svg" xmlns:xlink="http://www.w3.org/1999/xlink" x="0px" y="0px"
	 viewBox="0 0 512 512" style="enable-background:new 0 0 512 512;" xml:space="preserve">
<g>
	<path d="M256,483.2l13.8-18.4l-0.4-0.3c-4.6-3.5-49.6-38.3-92.4-87.6c-21.4-24.6-42.3-52.8-57.5-82.1
		c-15.2-29.3-24.6-59.3-24.6-87.7C95,155.8,115,116.6,145,88.9C175,61.3,215.7,46,256,46c40.3,0,81,15.3,111,42.9
		c30,27.7,49.9,66.9,50.1,118.2c0,29.3-9.9,60.4-26.1,90.6c-24.1,45.2-61.5,87.6-92.8,118.1c-15.7,15.3-29.8,27.7-40,36.1
		c-5.1,4.2-9.2,7.5-11.9,9.7l-3.1,2.5l-1,0.7L256,483.2l13.8-18.4L256,483.2l13.8,18.4c0.7-0.6,47.7-35.8,95.4-89.4
		c23.8-26.8,47.9-58.3,66.4-92.9c18.4-34.6,31.4-72.5,31.5-112.2c0.1-63.7-26-116.6-65-152.2C359.1,19.3,307.8,0,256,0
		c-51.8,0-103.1,19.3-142.1,54.9c-39,35.6-65.1,88.4-65,152.2c0,39.7,13.1,77.7,31.5,112.2c27.7,51.9,68,96.8,101.3,129.4
		c33.4,32.5,59.9,52.5,60.5,52.9L256,512l13.8-10.4L256,483.2z M256,276.1v23c50.8,0,92-41.2,92-92c0-50.8-41.2-92-92-92
		c-50.8,0-92,41.2-92,92c0,50.8,41.2,92,92,92V276.1v-23c-25.4,0-46-20.6-46-46c0-25.4,20.6-46,46-46c25.4,0,46,20.6,46,46
		c0,25.4-20.6,46-46,46V276.1z"/>
</g>
</svg>
