<?xml version="1.0" encoding="utf-8"?>
<!-- Generator: Adobe Illustrator 21.0.0, SVG Export Plug-In . SVG Version: 6.00 Build 0)  -->
<svg version="1.1" id="Layer_1" xmlns="http://www.w3.org/2000/svg" xmlns:xlink="http://www.w3.org/1999/xlink" x="0px" y="0px"
	 viewBox="0 0 512 512" style="enable-background:new 0 0 512 512;" xml:space="preserve">
<g>
	<path d="M491.9,156.3c-19.4-46-51.9-85-92.7-112.6C358.3,16.1,308.9,0,256,0c-35.3,0-69,7.2-99.7,20.1c-46,19.4-85,51.9-112.6,92.7
		C16.1,153.7,0,203.1,0,256c0,35.3,7.2,69,20.1,99.7c19.4,46,51.9,85,92.7,112.6C153.7,495.9,203.1,512,256,512
		c35.3,0,69-7.2,99.7-20.1c46-19.4,85-51.9,112.6-92.7C495.9,358.3,512,308.9,512,256C512,220.7,504.8,187,491.9,156.3z
		 M452.5,338.9c-16.2,38.3-43.3,70.9-77.3,93.9c-17,11.5-35.8,20.6-55.8,26.8s-41.3,9.6-63.4,9.6c-29.5,0-57.5-6-83-16.8
		c-38.3-16.2-70.9-43.3-93.9-77.3c-11.5-17-20.6-35.8-26.8-55.8s-9.6-41.3-9.6-63.4c0-29.5,6-57.5,16.8-83
		c16.2-38.3,43.3-70.9,77.3-93.9c17-11.5,35.8-20.6,55.8-26.8c20-6.2,41.3-9.6,63.4-9.6c29.5,0,57.5,6,83,16.8
		c38.3,16.2,70.9,43.3,93.9,77.3c11.5,17,20.6,35.8,26.8,55.8s9.6,41.3,9.6,63.4C469.3,285.4,463.3,313.4,452.5,338.9z"/>
	<path d="M320.7,290.4c0.2-0.2,0.3-0.5,0.5-0.7c6.3-9.4,11.3-19.7,14.8-30.7c3.4-11,5.3-22.8,5.3-34.9c0-16.1-3.3-31.6-9.2-45.7
		c-8.9-21.1-23.8-39-42.5-51.6c-9.4-6.3-19.7-11.3-30.7-14.8c-11-3.4-22.8-5.3-34.9-5.3v0c-16.1,0-31.6,3.3-45.7,9.2
		c-21.1,8.9-39,23.8-51.6,42.5c-6.3,9.4-11.3,19.7-14.8,30.7c-3.4,11-5.3,22.8-5.3,34.9c0,16.1,3.3,31.6,9.2,45.7
		c8.9,21.1,23.8,39,42.5,51.6c9.4,6.3,19.7,11.3,30.7,14.8c11,3.4,22.8,5.3,34.9,5.3c16.1,0,31.6-3.3,45.7-9.2
		c7.4-3.1,14.4-7,21-11.5l57,57c8.3,8.3,21.8,8.3,30.2,0c8.3-8.3,8.3-21.8,0-30.2L320.7,290.4z M265.8,286c-6,4-12.5,7.2-19.5,9.4
		c-7,2.2-14.4,3.4-22.2,3.4c-10.4,0-20.1-2.1-29.1-5.9c-13.4-5.7-24.8-15.1-32.9-27.1c-4-6-7.2-12.5-9.4-19.5s-3.4-14.4-3.4-22.2
		c0-10.4,2.1-20.1,5.9-29.1c5.7-13.4,15.1-24.8,27.1-32.9c6-4,12.5-7.2,19.5-9.4c7-2.2,14.4-3.4,22.2-3.4V128h0v21.3
		c10.4,0,20.1,2.1,29.1,5.9c13.4,5.7,24.8,15.1,32.9,27.1c4,6,7.2,12.5,9.4,19.5c2.2,7,3.4,14.4,3.4,22.2c0,10.4-2.1,20.1-5.9,29.1
		C287.2,266.5,277.8,277.9,265.8,286z"/>
</g>
</svg>
